<svg width="68.847mm" height="126.3mm" version="1.1" viewBox="0 0 68.846685 126.30059" xmlns="http://www.w3.org/2000/svg">
<circle cx="8.2772" cy="8.2776" r="7.7485" color="#000000" color-rendering="auto" fill="#a1d1ea" image-rendering="auto" shape-rendering="auto" solid-color="#000000" stroke="#1a6499" stroke-linecap="square" stroke-width="1.0583" style="isolation:auto;mix-blend-mode:normal"/>
<path d="m16.863 13.812c11.843 2.9903 30.274 16.183 1.6005 37.852" fill="none" stroke="#000" stroke-linecap="round" stroke-width="1.0583"/>
<text x="20.277452" y="8.8446512" fill="#000000" font-family="monospace" font-size="4.9389px" letter-spacing="0px" stroke-width=".26458px" word-spacing="0px" style="line-height:6.61458349px" xml:space="preserve"><tspan x="20.277452" y="8.8446512" font-family="monospace" font-size="4.9389px" stroke-width=".26458px">isNaN(num1)</tspan></text>
<g stroke-width="1.0583">
<path d="m7.1772 18.222s1.8917 28.776 1.8917 28.776" fill="none" stroke="#000" stroke-linecap="round"/>
<path d="m11.97 46.506c-0.0808 0.0405-0.2833 0.51616-0.63847 0.92698-0.24799 0.1647-0.21196 0.78005-0.5149 1.0439-0.19731 0.15024-0.41646 0.9779-0.68679 1.1772-0.22707 0.52749-0.46537 0.61718-0.72942 1.0155-0.46569 0.5596-0.66962 1.0391-0.70438 0.88327-8e-3 -0.17484-0.11076-0.71885-0.47329-1.4894-0.0898-0.27379-0.33753-0.90519-0.42929-1.4432-0.0805-0.51552-0.15954-0.57862-0.37469-1.1414-0.23171-0.59455-0.27186-1.1703-0.49278-1.512-0.21129-0.89516-0.54461-0.90573-0.57529-1.0658" fill="none" stroke="#000" stroke-linecap="round"/>
<circle cx="8.9186" cy="62.618" r="7.7485" color="#000000" color-rendering="auto" fill="#a1d1ea" image-rendering="auto" shape-rendering="auto" solid-color="#000000" stroke="#1a6499" stroke-linecap="square" style="isolation:auto;mix-blend-mode:normal"/>
</g>
<text x="35.466572" y="25.860584" fill="#000000" font-family="sans-serif" font-size="4.9389px" letter-spacing="0px" stroke-width=".26458px" word-spacing="0px" style="line-height:6.61458349px" xml:space="preserve"><tspan x="35.466572" y="25.860584" font-size="4.9389px" stroke-width=".26458px">num1 = 0;</tspan></text>
<path d="m20.968 52.871c-0.08765-0.0218-0.55103 0.20748-1.0881 0.28825-0.29546-0.0364-0.66859 0.45424-1.0704 0.4574-0.24759-0.0139-0.95265 0.47136-1.2876 0.44672-0.5157 0.25268-0.755 0.16569-1.2147 0.29621-0.71776 0.12177-1.1847 0.35305-1.1096 0.21214 0.10793-0.13775 0.38377-0.61784 0.61008-1.4389 0.11-0.26631 0.33288-0.9069 0.61336-1.3751 0.27438-0.4438 0.25548-0.54312 0.45842-1.1104 0.21105-0.6022 0.55528-1.0654 0.60995-1.4687 0.4222-0.81714 0.17602-1.0421 0.25688-1.1836" fill="none" stroke="#000" stroke-linecap="round" stroke-width="1.0583"/>
<g fill="#000000" font-size="4.9389px" letter-spacing="0px" stroke-width=".26458px" word-spacing="0px">
<text x="19.688654" y="63.591537" font-family="monospace" style="line-height:6.61458349px" xml:space="preserve"><tspan x="19.688654" y="63.591537" font-family="monospace" font-size="4.9389px" stroke-width=".26458px">isNaN(num2)</tspan></text>
<text x="35.466572" y="87.053009" font-family="sans-serif" style="line-height:6.61458349px" xml:space="preserve"><tspan x="35.466572" y="87.053009" font-size="4.9389px" stroke-width=".26458px">num2 = 0;</tspan></text>
<text x="20.051218" y="119.34811" font-family="sans-serif" style="line-height:6.61458349px" xml:space="preserve"><tspan x="20.051218" y="119.34811" font-size="4.9389px" stroke-width=".26458px">return num1+num2</tspan></text>
</g>
<path d="m8.2384 72.79l1.8917 28.776" stroke="#000" stroke-linecap="round" stroke-width="1.0583"/>
<g fill="none" stroke="#000" stroke-linecap="round" stroke-width="1.0583">
<path d="m13.032 101.07c-0.0808 0.0405-0.2833 0.51616-0.63847 0.92697-0.24799 0.1647-0.21196 0.78005-0.5149 1.0439-0.19731 0.15024-0.41646 0.9779-0.68679 1.1772-0.22707 0.52749-0.46537 0.61718-0.72942 1.0155-0.46569 0.5596-0.66962 1.0391-0.70438 0.88327-8e-3 -0.17483-0.11076-0.71885-0.47329-1.4894-0.0898-0.27378-0.33753-0.90519-0.42929-1.4432-0.0805-0.51552-0.15954-0.57862-0.37469-1.1414-0.23171-0.59455-0.27186-1.1703-0.49278-1.512-0.21129-0.89517-0.54461-0.90574-0.57529-1.0658"/>
<path d="m17.306 68.99c11.843 2.9903 22.366 12.794 1.4122 38.229"/>
<path d="m21.582 107.74c-0.09027 3e-3 -0.47333 0.35019-0.96783 0.57468-0.29414 0.0458-0.51897 0.6197-0.90456 0.73255-0.24197 0.0543-0.78752 0.71381-1.1165 0.78168-0.427 0.38401-0.68096 0.36576-1.0875 0.61695-0.65714 0.31332-1.0431 0.66343-1.0094 0.50737 0.06617-0.16201 0.20028-0.69921 0.19354-1.5508 0.03302-0.28624 0.07231-0.96334 0.21412-1.4904 0.14262-0.5019 0.09729-0.59227 0.13743-1.1934 0.03841-0.63695 0.24291-1.1766 0.18527-1.5795 0.18276-0.90142-0.11554-1.0505-0.07643-1.2088"/>
</g>
<circle cx="9.1293" cy="118.02" r="7.7485" color="#000000" color-rendering="auto" fill="#a1d1ea" image-rendering="auto" shape-rendering="auto" solid-color="#000000" stroke="#1a6499" stroke-linecap="square" stroke-width="1.0583" style="isolation:auto;mix-blend-mode:normal"/>
</svg>
